<?xml version="1.0" encoding="UTF-8"?>
<svg id="Capa_1" xmlns="http://www.w3.org/2000/svg" version="1.1" viewBox="0 0 300 100">
  <!-- Generator: Adobe Illustrator 29.0.0, SVG Export Plug-In . SVG Version: 2.1.0 Build 186)  -->
  <path d="M290.36,31.48c-.88-.01-6.99,0-12.25,0s-5.42,3.73-5.58,4.42c-.16.69-.43,1.72-.85,3.66h-4.02s.08-.45.86-4.05c.46-3.62-2.88-4.03-3.85-4.03h-4.81s.64-2.91,1.76-7.96c1.12-5.05-3.71-5.83-4.78-5.83s-10.65.01-13.56.01-4.17,2.03-4.33,2.99c-.1.6-.53,2.14-.96,3.98-.43-.67-1.82-.64-2.48-.64h-12.63c-3.26,0-4.39,1.89-4.72,3.2-.43,1.66-.59,3.15-1.07,5.07h-12.47c-3.42,0-4.14,1.47-4.62,2.38-.75,1.22-1.39,2.77-2.3,4.87.11-7.73-7.18-7.18-8.2-7.18h-13.19c-.85-.75-2.3-.9-3.23-.9h-47.79c.69-.3,1.02-1.85,1.36-3.04.35-1.46.8-3.72,1.44-7.38,1.27-7.27-5.04-9.04-7.07-9.04h-27.5c-5.85,0-5.98,2.93-6.41,4.54-.43,1.61-4.83,23.24-5.31,25.08h-14.42s.21-.69.53-2.03c1.92-8.91-5.58-8.18-9.16-8.18h-24.75s1.6-7.53,2.99-13.99c1.33-6.35-3.63-5.46-4.7-5.46h-12.17c-6.75,0-7.07,4.05-7.34,5.46-.27,1.42-6.15,29.5-8.09,38.52-1.94,9.02,4.57,10.92,7.07,10.92h10.33c1.34,0,2.08-.32,2.32-.59.35.32,1.39.59,3.04.59h13.4c1.58,0,2.3-.32,2.67-.53.96.53,2.62.53,3.9.53h9.73c4.69,0,5.43-1.76,6.24-3.98.35-1.12.88-2.99,1.25-4.54h13.64c-.53,8.25,7.13,8.57,8.73,8.57h24.88c3.28,0,4.49-.64,5.13-2.54.48,2.11,2.32,2.54,5.79,2.54h8.41c3.5,0,4.83-1.82,5.63-2.54,1.17,2.27,3.15,2.54,5.26,2.54h26.62s-1.6,6.7-2.03,9.02c-2.24,9.34,5.18,11.18,6.97,11.18h24.21c5.39,0,6.57-3.38,7.13-4.56.56-1.17,7.37-17.35,8.09-19.3.96,3.02,3.95,3.66,6.09,3.66h9.34c3.5,0,4.06-1.6,4.43-2.35,0,1.76,2.3,2.35,4.67,2.35h11.29c-.21.16-.21,1.84-.21,2.35v1.82c0,4.7,4.19,4.85,5.58,4.85h25.71c6.33,0,8.2-5.07,8.84-7.17.43-1.42,5.24-24.48,6.59-30.9,1.13-5.35-3.04-6.38-5.1-6.4ZM61.09,62.06c-.26,1.21-1.04,2.27-4.46,2.27h-9.28c-1.96,0-3.75.05-4.04-2.09-.02.93-.47,1.39-.98,1.68-.5.29-1.04.41-3.6.41h-11.24c-1.1,0-3.12-.07-3.12-2.09,0,1.22-.31,1.22-.31,1.22,0,0-.24.87-2.69.87h-10.39c-1.35,0-5.52-1.33-4.03-7.71,1.59-6.84,8.37-38.29,8.74-39.36.37-1.13.85-3.24,4.58-3.24h10.27c1.59,0,4.83-.25,4.09,3.3-.73,3.54-3.48,15.91-3.48,15.91h29.95c1.77,0,5.93.35,4.76,6.26-1.66,8.45-4.33,20.61-4.76,22.56ZM80.21,54.12c-.3.98-1.83,1.73-4.4,1.73h-9.41c-.98,0-2.63-.33-2.14-2.83.59-3.05,1.26-5.74,1.59-6.72.37-1.1,1.22-2.26,4.03-2.26h8.31c.98,0,4.07.28,3.48,3.36-.73,3.85-1.17,5.74-1.47,6.72ZM292.95,37.12c-.55,3.23-6.24,29.65-6.67,30.92-.43,1.28-1.98,5.51-6.54,5.51h-25.48c-1.04,0-3.68-.43-3.68-2.51v-3.73c0-1.1.88-2.99,3.8-2.99-1.52-.55-2.68-1.55-3.2-3.19-.24,1.52-.79,3.19-3.59,3.19h-10.39c-1.03,0-5.5-.67-4.04-6.97,1.46-6.3,3.32-15.76,3.32-15.76h-.46s-3.89,18.56-4.07,19.54c-.18.97-.55,3.19-3.84,3.19h-9.5c-1.4,0-5.78-.94-3.9-8.36.79-3.69,1.46-7.04,1.46-7.04l-4.78,11.78s-8.55,20.12-9.04,21.21c-.49,1.1-1.19,2.86-4.26,2.86h-23.83c-1.79,0-7.27-.61-5.57-8.55,1.7-7.94,2.56-11.9,2.56-11.9h-27.36c-3.32,0-7.09-1.52-5.81-7.64,1.28-6.12,1.5-6.61,1.64-7.39.18-.97.88-3.5,2.16-4.23h-4.11s-2.92,15.45-3.29,17.18c-.24,1.03-1.06,2.09-3.32,2.09h-9.89c-2.07,0-3.74-1-4.23-3.25-.91,1.17-1.89,3.25-5.48,3.25h-23.93c-4.07,0-8.3-1.64-6.69-8.25,1.89-7.73,8.07-37.74,8.49-38.93.43-1.19,1.37-3.13,3.71-3.13h27.03c2.38,0,6.19,1.43,5.48,6.17-.79,5.26-1.22,7.4-1.4,8.19-.18.85-.24,2.38-3.65,2.38h-12.84c-.67,0-2.13-.12-2.13-2.13-.49,2.8-.85,4.6-.85,4.6h14.24c1.28,0,2.44.54,2.62,1.45.55-.85.88-1.45,2.86-1.45h47.12c1.8,0,3.13.24,3.99,1.39h13.7c2.07,0,7.18.49,5.48,7.88-1.7,7.4-4.02,19.36-4.02,19.36,0,0,9.83-23.65,10.2-24.38.36-.73.67-2.86,4.17-2.86h14.91c-.7-.49-1-1.25-.64-2.77.36-1.52.71-3.19.82-3.84.12-.73.61-1.83,2.74-1.83h12.57c1,0,3.56.57,3.01,3.19-.63,3.01-1.03,4.47-1.03,4.47l.49-.02s2.37-10.79,2.5-11.33c.12-.54.73-2.43,3.56-2.43h12.39c1.04,0,3.16.35,2.44,3.65-.79,3.62-1.28,7.75-1.83,9.5h6.79c.67,0,3.16-.1,2.8,1.7-.69,3.4-.77,3.65-1.06,4.92-.14.61-.35,1.79-1.44,1.79h6.66c.67,0,1.64.5,1.89,1.48.37-1.28,1.46-6.55,1.58-7.28.18-1.22.58-2.61,3.38-2.61h12.45c.82,0,3.38.66,2.83,3.89ZM290.71,35.89l-6.59,31.09c-.24,1.09-.83,2.02-1.75,2.78-.93.81-1.95,1.21-3.09,1.21h-26.19v-4.58h15.57c1.28-.01,1.44-.29,1.77-.86.08-.31.03.07.38-1.13.19-.64.43-1.52.6-2.25h-14.28c-1.01,0-1.86-.32-2.54-.97-.64-.64-.97-1.43-.97-2.36,0-.36.02-.65.06-.85.65-3.03,1.27-6.01,1.88-8.95.64-3.15.58-3.21.87-4.65,1.1,0,14.17.01,14.17.01l-3.18,15.34c0,.32.06.62.18.91.12.24.38.36.79.36h3.15l5.34-25.12h13.85ZM221.19,35.84l-4.65,22.25c-.04.2-.06.49-.06.86,0,.94.33,1.74.98,2.39.77.68,1.58.9,2.6.9h9.57l5.63-26.43s-11.89.03-14.07.03ZM236.79,28.39h-14.05l-1.08,4.71h14.12l1.02-4.71ZM66.21,53.64h11.68l1.6-7.52h-11.68l-1.6,7.52ZM32.63,16.53h-14.46l-.61,2.46-1.21,5.58h14.51l1.77-8.04ZM15.71,27.54c-.83,3.81-1.77,8.1-2.42,11.02-1.45,6.42-2.89,12.89-4.34,19.39-.04.2-.06.49-.06.86,0,.94.32,1.76.96,2.46.68.65,1.55.98,2.62.98h10.07s.87-3.93.92-4.05l6.77-30.65h-14.5ZM102.62,35.67v1.17c.74,0,1.39.16,1.97.49.57.29.86.84.86,1.66,0,.33-.02.57-.06.74l-4.17,19.77c-.12.57-.47,1-1.04,1.29-.57.29-1.17.43-1.78.43-.45,0-.82-.06-1.1-.18-.45-.25-.68-.57-.68-.98v-.12s.06-.1.06-.18c1.43-6.79,2.86-13.53,4.3-20.2,1.43-6.71,2.87-13.44,4.3-20.2.16-.69.51-1.13,1.04-1.29.53-.21,1.13-.31,1.78-.31.45,0,.86.06,1.23.18.37.12.55.41.55.86,0,.04-.02.08-.06.12v.18l-1.9,8.78h14.06l1.47-7.06c.04-.16.06-.31.06-.43.04-.12.06-.27.06-.43,0-.94-.33-1.74-.98-2.39-.61-.7-1.45-1.04-2.52-1.04,0,0-26.45.05-28.38.05l-8.82,41.39c-.04.2-.06.49-.06.86,0,.94.31,1.76.92,2.46.61.65,1.45.98,2.52.98h24.37c1.19,0,2.23-.39,3.13-1.17.94-.82,1.53-1.78,1.78-2.89l4.79-22.53h-17.68ZM59.66,35.98h-28.09s-.85,3.89-.89,4.01c-.81,3.73-1.6,7.43-2.37,11.12-.77,3.69-1.52,7.39-2.25,11.12h13.85l5.22-25.03h3.16c.36,0,.61.12.73.36.16.24.24.55.24.91-.69,3.28-1.38,6.54-2.07,9.78-.69,3.24-1.38,6.5-2.07,9.78-.04.2-.06.49-.06.85,0,.93.32,1.72.97,2.37.65.65,1.5.97,2.55.97,0,0,7.78.02,9.72.02.69-3.28,1.93-8.99,2.61-12.23.69-3.24,1.38-6.5,2.07-9.78.04-.2.06-.49.06-.85,0-.93-.3-1.72-.91-2.37-.61-.69-1.44-1.03-2.49-1.03ZM139.67,42.72h9.86l.55-2.63c.04-.2.06-.49.06-.86,0-.94-.33-1.74-.98-2.39-.61-.69-1.43-1.04-2.45-1.04,0,0-22.53.04-23.08.04-.69,3.31-1.94,9.06-2.63,12.32-.69,3.26-1.39,6.55-2.08,9.86-.04.2-.06.49-.06.86,0,.94.33,1.73.98,2.39s1.49.98,2.51.98h9.9l5.1-25.22h1.53c1.82,0,1.88.27,1.77.92-.39,2.21-.56,2.88-.98,4.77ZM174.73,40.15l-4.62,22.09c-3.69,0-26.55.03-26.55.03-1.06,0-1.92-.32-2.57-.98-.61-.65-.92-1.45-.92-2.38,0-.37.02-.65.06-.86l2.02-9.72c.12-.53.32-1.04.61-1.53.33-.49.69-.92,1.1-1.28.45-.37.94-.65,1.47-.86.53-.2,1.08-.31,1.65-.31h12.9l.54-2.49c.11-.56.41-1.39-.77-1.39h-7.42l.98-4.62h18.15c1.02,0,1.83.35,2.44,1.04.65.65.98,1.45.98,2.38,0,.37-.02.65-.06.86ZM159.64,45.53h-2.93c-.45,0-.86.16-1.22.49-.33.29-.53.63-.61,1.04l-2.75,12.77c0,.08-.02.14-.06.18v.18c0,.41.16.67.49.79.37.12.75.18,1.16.18.65,0,1.26-.08,1.83-.24.57-.2.94-.65,1.1-1.34l2.99-14.06ZM203.77,36.94l-18.06,42.7c-.34.67-.54,1.27-.87,1.21-.53-.1-.8-.35-.47-1.21.34-.85,7.89-37.17,8.36-39.31.2-1.25-.69-3.39-3.08-3.39h-13.43l.4,1.27h.87c.8,0,1.68.22,1.41,1.41-.27,1.19-7.89,36.83-8.16,37.97-.27,1.14-.96,4.7,3.47,4.7h25.34c.74-1.57,19.4-45.35,19.4-45.35h-15.18ZM264.39,35.83h-10.52l2.81-13.33s-12.98,0-13.95,0l-2.81,13.32h-2.79c-.15.57-.92,4.1-1.04,4.66h2.7l-3.57,17.54c-.04.2-.06.49-.06.85,0,.94.33,1.73.98,2.39.65.65,1.49.98,2.51.98,0,0,8.03,0,9.64,0l4.6-21.76h10.53s.98-4.48.98-4.66ZM207.97,87.84h-2.32v-2.47h2.32v2.47ZM218.75,87.84h-3.75c-1.73,0-3.09-.45-4.08-1.36-.99-.91-1.49-2.23-1.49-3.96,0-3.59,1.86-5.38,5.57-5.38h3.75v2.28h-3.56c-1.05,0-1.79.27-2.24.8-.42.47-.63,1.24-.63,2.3,0,1.12.25,1.91.75,2.39.5.47,1.3.71,2.41.71h3.27v2.22ZM231.2,82.49c0,1.72-.51,3.08-1.52,4.08-1.01,1-2.38,1.51-4.09,1.51s-3.1-.5-4.1-1.5c-1-1-1.51-2.36-1.51-4.09s.5-3.14,1.49-4.1c.99-.96,2.37-1.44,4.12-1.44,1.37,0,2.55.35,3.54,1.05,1.38.98,2.07,2.48,2.07,4.5ZM228.35,82.53c0-.92-.22-1.68-.67-2.28-.49-.68-1.18-1.03-2.07-1.03-.68,0-1.29.26-1.82.77-.64.61-.96,1.46-.96,2.53,0,.85.24,1.6.71,2.24.53.7,1.21,1.05,2.03,1.05.86,0,1.56-.34,2.07-1.03.47-.61.71-1.37.71-2.26ZM248.15,87.84h-2.72v-6.43c0-.74-.13-1.25-.39-1.53-.26-.28-.75-.42-1.48-.42h-1.59v8.37h-2.87v-8.37h-3.35v8.37h-2.72v-10.7h10.72c1.48,0,2.56.27,3.24.82.77.61,1.15,1.65,1.15,3.1v6.78Z"/>
</svg>