<?xml version="1.0" encoding="UTF-8"?>
<svg id="Capa_1" xmlns="http://www.w3.org/2000/svg" version="1.1" viewBox="0 0 1080 1920">
  <!-- Generator: Adobe Illustrator 29.0.0, SVG Export Plug-In . SVG Version: 2.1.0 Build 186)  -->
  <defs>
    <style>
      .st0 {
        fill: #1f140f;
      }

      .st1 {
        fill: #ff0;
      }
    </style>
  </defs>
  <polygon class="st1" points="802.67 48.3 86 1289.6 149.78 1400.07 277.33 1400.07 994 158.77 930.22 48.3 802.67 48.3"/>
  <path id="ICO_MP" class="st0" d="M210.74,1316.16l-32.98,33.55,7.66-46.25-40.9-20.41,73.82-13.02,33.29,66.65-40.9-20.52ZM197.5,1269.93c8.67-1.53,15.7-10.02,15.7-18.96,0-8.94-7.03-14.95-15.7-13.42-8.67,1.53-15.7,10.02-15.7,18.96,0,8.94,7.03,14.95,15.7,13.42ZM197.5,1253.73,182.65,1355.81c2.18-.38,3.94-2.51,3.94-4.76,0-2.24-1.76-3.75-3.94-3.37-2.18.38-3.94,2.51-3.94,4.76,0,2.24,1.76,3.75,3.94,3.37ZM190.12,1348.24c2.18-.38,3.94-2.51,3.94-4.76,0-2.24-1.76-3.75-3.94-3.37s-3.94,2.51-3.94,4.76c0,2.24,1.76,3.75,3.94,3.37ZM197.61,1340.7c2.18-.38,3.94-2.51,3.94-4.76,0-2.24-1.76-3.75-3.94-3.37-2.18.38-3.94,2.51-3.94,4.76,0,2.24,1.76,3.75,3.94,3.37ZM258.82,1332.21c.95-2.19.14-4.47-1.81-5.11-1.96-.64-4.32.61-5.27,2.8-.95,2.19-.14,4.47,1.81,5.11,1.96.64,4.32-.61,5.27-2.8ZM254.76,1323.93c.95-2.19.14-4.47-1.81-5.11-1.96-.64-4.32.61-5.27,2.8s-.14,4.47,1.81,5.11c1.96.64,4.32-.61,5.27-2.8ZM250.68,1315.67c.95-2.19.14-4.47-1.81-5.11-1.96-.64-4.32.61-5.27,2.8-.95,2.19-.14,4.47,1.81,5.11,1.96.64,4.32-.61,5.27-2.8Z"/>
</svg>