<?xml version="1.0" encoding="UTF-8"?>
<svg id="Capa_1" xmlns="http://www.w3.org/2000/svg" version="1.1" viewBox="0 0 300 100">
  <!-- Generator: Adobe Illustrator 29.0.0, SVG Export Plug-In . SVG Version: 2.1.0 Build 186)  -->
  <path d="M100.91,56.92c3.22-1.73,5.25-4.91,6.19-9.18l.29-1.38c1.45-6.59-1.01-10.9-8.08-10.9h-13.12c-.49,0-.6.11-.75.65l-7.4,33.49c-.1.54.19.97.73.97h5.24c.54,0,.66-.11.75-.65l2.55-11.55h6.91l2.18,11.17c.01.54.57,1.03,1.11,1.03h4.91c.81,0,1.05-.32.9-1.13l-2.39-12.52ZM100.39,47.36c-.77,3.56-2.2,4.59-4.74,4.59h-6.96l2.23-10.12h7.29c2.54,0,3.29.7,2.52,4.21l-.34,1.32ZM121.94,43.37h-2.64c-5.78,0-9.76,3.94-11.03,9.61l-1.78,8.1c-1.21,5.67,1.37,9.77,7.04,9.77h2.65c5.77,0,9.75-3.78,10.96-9.45l1.78-8.1c1.27-5.67-1.2-9.93-6.97-9.93ZM122.61,51.9l-2.2,9.93c-.42,1.89-1.79,2.81-3.19,2.81h-2.64c-1.35,0-2.11-.59-1.69-2.43l2.2-9.93c.42-1.89,1.73-2.7,3.19-2.7h2.64c1.35,0,2.12.49,1.7,2.32ZM141.98,37.95l-6.67,31.76c-.16.59-.34.86-.83.86h-5.02c-.59,0-.84-.32-.74-.86l6.72-31.76c.16-.7.5-.81,1.04-.81h4.86c.54,0,.73.32.64.81ZM152.15,37.95l-6.67,31.76c-.16.59-.34.86-.82.86h-5.02c-.59,0-.84-.32-.74-.86l6.72-31.76c.16-.7.5-.81,1.04-.81h4.86c.54,0,.73.32.64.81ZM165.88,43.37h-2.65c-5.77,0-9.92,3.94-11.19,9.66l-1.62,7.34c-1.27,5.72,1.32,10.47,7.04,10.47h2.7c4.64,0,6.75-2,8.98-4.21.53-.54.26-1.19-.2-1.56l-2.16-1.94c-.46-.27-.89-.32-1.25.11-.96,1.24-1.62,1.4-4.32,1.4h-2.7c-1.35,0-2.11-.59-1.69-2.48l.52-2.38h12.41c1.03,0,1.43-.38,1.62-1.4l1.16-5.02c1.29-5.99-1.73-9.99-6.65-9.99ZM166.22,51.9l-.58,2.54h-7.12l.49-2.1c.43-1.94,1.79-2.75,3.19-2.75h2.64c1.3,0,1.8.49,1.38,2.32ZM190.74,49.95c-1.38-.32-2.18-.38-2.94-.38-2.65,0-4.52,1.13-5.3,2.1l-4.15,18.08c-.16.59-.34.81-.88.81h-5.02c-.59,0-.78-.32-.69-.81l5.6-25.37c.16-.65.39-.81.93-.81h5.02c.49,0,.74.16.58.81l-.56,2.27c1.8-2.27,4.42-3.29,7.28-3.29,2.21,0,4.99,1.08,3.95,2.59l-2.39,3.62c-.36.49-.75.54-1.44.38ZM209.05,43.37h-1.24c-2.11,0-3.69.92-4.81,2.05l.44-2.03,1.24-5.27c.1-.54-.14-.97-.46-.97h-5.13c-.54,0-.82.11-.92.65l-7.11,31.81c-.1.54.03.97.57.97l11.64.27c5.72,0,9.59-3.78,10.85-9.45l1.78-8.1c1.27-5.67-1.25-9.93-6.86-9.93ZM209.66,51.89l-2.2,9.93c-.42,1.89-1.84,2.81-3.19,2.81h-3.29c-1.19,0-2.12-.43-1.8-1.84l2.46-11.12c.28-1.51,1.84-2.1,2.98-2.1h3.35c1.35,0,2.12.49,1.7,2.32ZM228.98,37.95l-7.11,31.76c-.16.59-.34.86-.83.86h-5.02c-.59,0-.84-.32-.74-.86l7.16-31.76c.16-.7.5-.81,1.04-.81h4.86c.54,0,.73.32.64.81ZM241.89,43.37h-1.62c-2.97,0-6.49.81-9.02,2.05-.46.38-.33.81-.27,1.4l.66,3.18c.1.81.72,1.13,1.87.92.8-.48,3.02-1.35,5.72-1.35h1.62c2.11,0,2.68.27,2.24,2.32l-.58,2.54h-6.48c-5.56,0-8.71,2.27-9.98,7.93-1.12,5.18,2.02,8.47,6.77,8.47h1.35c2.21,0,3.92-1.14,5.34-2.65l-.24.92c-.17.76.21,1.46.8,1.46h5.45c.22,0,.04-.49.33-1.46l3.7-16.46c1.41-6.15-1.3-9.28-7.67-9.28ZM240.71,62.74c-.67.97-1.66,1.89-3.98,1.89h-2.86c-1.03,0-1.64-.49-1.22-2.27.36-1.84,1.61-2.59,2.64-2.59h6.04l-.62,2.97ZM276.3,37.14h-5.07c-.32,0-.55.11-.65.65l-1.38,5.75s-2.38-.17-4.7-.17h-1.19c-5.72,0-9.71,3.94-10.97,9.61l-1.78,8.1c-1.21,5.67,1.37,9.77,6.99,9.77h1.19c2.16,0,3.74-.92,4.87-2.21l-.24.97c-.04.54.35.97.68.97h5.18c.49,0,.6-.11.75-.65l7.11-31.81c.1-.54-.19-.97-.79-.97ZM267.34,51.73l-2.3,10.53c-.56,1.57-1.86,2.37-3.11,2.37h-3.29c-1.35,0-2.11-.59-1.69-2.43l2.2-9.93c.42-1.89,1.73-2.7,3.19-2.7h3.29c1.29,0,2.07.43,1.72,2.16ZM281.77,59.78h12.41c1.03,0,1.43-.38,1.62-1.4l1.16-5.02c1.29-5.99-1.73-9.99-6.65-9.99h-2.64c-5.77,0-9.92,3.94-11.19,9.66l-1.62,7.34c-1.27,5.72,1.32,10.47,7.04,10.47h2.7c4.64,0,6.75-2,8.97-4.21.53-.54.26-1.19-.2-1.56l-2.17-1.94c-.46-.27-.89-.32-1.25.11-.96,1.24-1.62,1.4-4.32,1.4h-2.7c-1.35,0-2.11-.59-1.69-2.48l.51-2.38ZM283.45,52.33c.42-1.94,1.79-2.75,3.19-2.75h2.64c1.3,0,1.8.49,1.38,2.32l-.58,2.54h-7.12s.49-2.1.49-2.1ZM297.45,65.85c-1.4,0-2.54,1.15-2.54,2.55s1.14,2.55,2.54,2.55,2.55-1.15,2.55-2.55-1.15-2.55-2.55-2.55ZM297.45,70.33c-1.06,0-1.92-.87-1.92-1.93s.86-1.92,1.92-1.92,1.92.86,1.92,1.92-.86,1.93-1.92,1.93ZM297.76,67.09h-1.15c-.08,0-.13.06-.13.13v2.32c0,.07.06.13.13.13h.42c.08,0,.13-.06.13-.13v-.71h.28l.26.75s.07.1.13.1h.48c.1,0,.16-.1.12-.19l-.28-.69c.23-.13.47-.35.47-.79,0-.57-.43-.92-.87-.92ZM297.64,68.26h-.49v-.47h.49c.12,0,.23.1.23.23,0,.13-.11.23-.23.23ZM13.56,58.87c-.37-.84-.24-2.27-.18-2.7.06-.43.45-1.55.78-2.13,1.64-2.87,25.02-26.99,25.02-26.99.77-.85,2.31-1.81,3.41-2.12l11.53-3.23c1.11-.31,1.64.3,1.17,1.35l-7.54,17.19c-.46,1.05-.08,2.47.85,3.14l12.35,8.97c1.65,1.27,2.11,2.27,1.53,3.62,0,0-2,4.87-4.67,4.76H19.67c-.19,0-1.42,0-1.42,0,0,0-2.19-.07-2.72-.23-.93-.27-1.6-.82-1.98-1.66ZM.6,70.33c1.81-4.44,7.15-8.03,11.93-8.03,3.8,0,6.1,2.27,5.98,5.43,2.45-3.16,6.6-5.43,10.4-5.43s6.1,2.27,5.98,5.43c2.45-3.16,6.6-5.43,10.4-5.43s6.1,2.27,5.98,5.43c2.45-3.16,6.6-5.43,10.4-5.43,4.78,0,7.2,3.6,5.39,8.03-1.81,4.44-7.15,8.03-11.93,8.03-3.8,0-6.1-2.27-5.98-5.43-2.45,3.16-6.6,5.43-10.4,5.43s-6.1-2.27-5.98-5.43c-2.45,3.16-6.6,5.43-10.4,5.43s-6.1-2.27-5.98-5.43c-2.45,3.16-6.6,5.43-10.4,5.43-4.78,0-7.2-3.6-5.39-8.03Z"/>
</svg>